<svg width="16" height="16" viewBox="0 0 16 16" fill="none" xmlns="http://www.w3.org/2000/svg">
<path fill-rule="evenodd" clip-rule="evenodd" d="M1.39582 2.86801C1.07989 1.92378 2.02135 1.03492 2.95379 1.42911C4.38657 2.03483 6.67897 3.02541 8.33166 3.8446C10.2093 4.7753 12.7302 6.21294 14.0877 6.99985C14.8599 7.44747 14.8599 8.55236 14.0877 8.99999C12.7302 9.7869 10.2093 11.2245 8.33166 12.1552C6.67897 12.9744 4.38657 13.965 2.95379 14.5707C2.02135 14.9649 1.07989 14.0761 1.39582 13.1318L3.1129 7.99992L1.39582 2.86801ZM4.00452 8.5004L2.34898 13.4484C2.30228 13.5879 2.4381 13.7014 2.56131 13.6493C3.99357 13.0438 6.26119 12.0635 7.8841 11.2591C9.72907 10.3446 12.2244 8.92208 13.5824 8.13484C13.6887 8.07322 13.6887 7.92661 13.5824 7.865C12.2244 7.07776 9.72907 5.65526 7.8841 4.74076C6.26119 3.93634 3.99357 2.95604 2.56131 2.35054C2.4381 2.29845 2.30228 2.41189 2.34898 2.55148L4.00452 7.49944H6.76825C7.04569 7.49944 7.27061 7.72351 7.27061 7.99992C7.27061 8.27632 7.04569 8.5004 6.76825 8.5004H4.00452Z" fill="#292929"/>
</svg>
