<svg width="40" height="40" viewBox="0 0 40 40" fill="none" xmlns="http://www.w3.org/2000/svg">
<g clip-path="url(#clip0_796_3575)">
<rect width="40" height="40" rx="4" fill="#EAFF69"/>
<path d="M25.9208 39.492C24.5704 37.6164 23.5139 33.0526 23.3889 31.2396L16.9651 28.4731L14.2925 39.492H25.9208Z" fill="#FC909F" stroke="black" stroke-width="0.375108"/>
<mask id="mask0_796_3575" style="mask-type:alpha" maskUnits="userSpaceOnUse" x="14" y="28" width="12" height="12">
<path d="M25.9208 39.492C24.5704 37.6164 23.5139 33.0526 23.3889 31.2396L16.9651 28.4731L14.2925 39.492H25.9208Z" fill="#FFEDEF"/>
</mask>
<g mask="url(#mask0_796_3575)">
<ellipse cx="22.9215" cy="27.8184" rx="5.53285" ry="5.06396" fill="black"/>
</g>
<g clip-path="url(#clip1_796_3575)">
<path d="M25.7348 38.0872C24.3844 36.2116 23.3279 32.5856 23.2028 30.7726L16.7791 28.0061L14.1064 38.0872H25.7348Z" fill="#77311D" stroke="black" stroke-width="0.375108"/>
<mask id="mask1_796_3575" style="mask-type:alpha" maskUnits="userSpaceOnUse" x="14" y="28" width="12" height="12">
<path d="M25.7348 39.0249C24.3844 37.1494 23.3279 32.5856 23.2028 30.7726L16.7791 28.0061L14.1064 39.0249H25.7348Z" fill="#AC6651"/>
</mask>
<g mask="url(#mask1_796_3575)">
<g style="mix-blend-mode:multiply">
<ellipse cx="22.9215" cy="27.8184" rx="5.53285" ry="5.06396" fill="black"/>
</g>
</g>
<mask id="path-8-inside-1_796_3575" fill="white">
<path fill-rule="evenodd" clip-rule="evenodd" d="M28.5376 22.2779C28.535 22.267 28.5324 22.2562 28.5298 22.2453C28.5272 22.2344 28.5246 22.2235 28.5219 22.2127L26.9844 15.7953C26.9828 15.7888 26.9813 15.7823 26.9797 15.7758C26.9782 15.7694 26.9766 15.7629 26.9751 15.7564L26.9683 15.7283L26.9682 15.7283C26.01 11.8418 22.0923 9.45201 18.1936 10.3861C14.2949 11.3202 11.8855 15.2259 12.7926 19.1247L12.7924 19.1247L14.3858 25.7752L14.3871 25.7749C15.3814 29.6108 19.2701 31.9587 23.1401 31.0314C27.01 30.1042 29.4125 26.2491 28.5606 22.3791L28.5617 22.3788L28.5376 22.2779Z"/>
</mask>
<path fill-rule="evenodd" clip-rule="evenodd" d="M28.5376 22.2779C28.535 22.267 28.5324 22.2562 28.5298 22.2453C28.5272 22.2344 28.5246 22.2235 28.5219 22.2127L26.9844 15.7953C26.9828 15.7888 26.9813 15.7823 26.9797 15.7758C26.9782 15.7694 26.9766 15.7629 26.9751 15.7564L26.9683 15.7283L26.9682 15.7283C26.01 11.8418 22.0923 9.45201 18.1936 10.3861C14.2949 11.3202 11.8855 15.2259 12.7926 19.1247L12.7924 19.1247L14.3858 25.7752L14.3871 25.7749C15.3814 29.6108 19.2701 31.9587 23.1401 31.0314C27.01 30.1042 29.4125 26.2491 28.5606 22.3791L28.5617 22.3788L28.5376 22.2779Z" fill="#77311D"/>
<path d="M28.5376 22.2779L28.1724 22.3637L28.1728 22.3653L28.5376 22.2779ZM28.5219 22.2127L28.1571 22.3001L28.1575 22.3017L28.5219 22.2127ZM26.9844 15.7953L26.6193 15.8817L26.6196 15.8827L26.9844 15.7953ZM26.9797 15.7758L26.615 15.8632L26.615 15.8632L26.9797 15.7758ZM26.9751 15.7564L26.6103 15.8438L26.6105 15.8448L26.9751 15.7564ZM26.9683 15.7283L27.3331 15.6409L27.2458 15.2763L26.8811 15.3635L26.9683 15.7283ZM26.9682 15.7283L26.604 15.8181L26.6931 16.1797L27.0554 16.0932L26.9682 15.7283ZM18.1936 10.3861L18.1062 10.0213L18.1062 10.0213L18.1936 10.3861ZM12.7926 19.1247L12.8806 19.4893L13.2423 19.4021L13.1579 19.0397L12.7926 19.1247ZM12.7924 19.1247L12.7044 18.7601L12.3404 18.848L12.4276 19.2121L12.7924 19.1247ZM14.3858 25.7752L14.021 25.8626L14.1084 26.2274L14.4732 26.14L14.3858 25.7752ZM14.3871 25.7749L14.7502 25.6808L14.6578 25.3243L14.2997 25.4101L14.3871 25.7749ZM23.1401 31.0314L23.0527 30.6667L23.0527 30.6667L23.1401 31.0314ZM28.5606 22.3791L28.4732 22.0143L28.115 22.1001L28.1942 22.4597L28.5606 22.3791ZM28.5617 22.3788L28.6491 22.7436L29.0139 22.6562L28.9265 22.2914L28.5617 22.3788ZM28.9027 22.1922C28.9 22.1807 28.8973 22.1693 28.8946 22.1579L28.165 22.3327C28.1675 22.343 28.17 22.3533 28.1724 22.3637L28.9027 22.1922ZM28.8946 22.1579C28.8919 22.1465 28.8891 22.135 28.8863 22.1236L28.1575 22.3017C28.1601 22.312 28.1625 22.3223 28.165 22.3327L28.8946 22.1579ZM26.6196 15.8827L28.1571 22.3001L28.8867 22.1253L27.3492 15.7079L26.6196 15.8827ZM27.3494 15.7089C27.3478 15.702 27.3462 15.6952 27.3445 15.6885L26.615 15.8632C26.6164 15.8694 26.6179 15.8756 26.6194 15.8817L27.3494 15.7089ZM27.3445 15.6885C27.3429 15.6817 27.3413 15.6748 27.3396 15.668L26.6105 15.8448C26.612 15.851 26.6135 15.8571 26.615 15.8632L27.3445 15.6885ZM26.6035 15.8157L26.6103 15.8438L27.3398 15.669L27.3331 15.6409L26.6035 15.8157ZM27.0554 16.0932L27.0555 16.0932L26.8811 15.3635L26.881 15.3635L27.0554 16.0932ZM27.3324 15.6386C26.3248 11.5519 22.2055 9.03915 18.1062 10.0213L18.281 10.7509C21.979 9.86487 25.6951 12.1317 26.604 15.8181L27.3324 15.6386ZM18.1062 10.0213C14.0068 11.0035 11.4735 15.1102 12.4272 19.2097L13.1579 19.0397C12.2976 15.3416 14.5829 11.6369 18.281 10.7509L18.1062 10.0213ZM12.8804 19.4894L12.8806 19.4893L12.7046 18.7601L12.7044 18.7601L12.8804 19.4894ZM14.7506 25.6878L13.1572 19.0373L12.4276 19.2121L14.021 25.8626L14.7506 25.6878ZM14.2997 25.4101L14.2984 25.4104L14.4732 26.14L14.4745 26.1397L14.2997 25.4101ZM14.024 25.869C15.0695 29.9025 19.1583 32.3712 23.2275 31.3962L23.0527 30.6667C19.3819 31.5461 15.6933 29.3191 14.7502 25.6808L14.024 25.869ZM23.2275 31.3962C27.2966 30.4213 29.8227 26.3678 28.9269 22.2984L28.1942 22.4597C29.0023 26.1304 26.7234 29.7872 23.0527 30.6667L23.2275 31.3962ZM28.4744 22.014L28.4732 22.0143L28.6479 22.7439L28.6491 22.7436L28.4744 22.014ZM28.1728 22.3653L28.1969 22.4662L28.9265 22.2914L28.9023 22.1905L28.1728 22.3653Z" fill="black" mask="url(#path-8-inside-1_796_3575)"/>
</g>
<path d="M22.1709 24.6957C22.5616 24.4769 24.1402 24.1987 24.1402 24.8364C24.1402 25.6335 23.0618 25.5866 23.0618 25.5866C23.0618 25.5866 24.2851 25.2902 24.0464 26.1493C23.812 26.9933 23.1556 26.6651 22.968 26.5713" stroke="black" stroke-width="0.375108"/>
<path d="M21.5146 12.2515C22.89 12.1889 25.3032 11.4262 23.9529 8.87549" stroke="black" stroke-width="0.375108"/>
<path d="M19.0762 12.064C20.4516 12.0014 22.8648 11.2387 21.5144 8.68799" stroke="black" stroke-width="0.375108"/>
<path d="M15.7002 13.0955C17.0756 13.0329 19.4888 12.2702 18.1384 9.71948" stroke="black" stroke-width="0.375108"/>
<path d="M23.3901 16.4916C23.9215 16.2415 25.1719 16.0133 25.9221 17.1011" stroke="#FC909F" stroke-width="0.375108" stroke-linecap="round"/>
<path d="M16.3175 18.8648C16.5117 18.3105 17.2255 17.2589 18.5272 17.4864" stroke="#FC909F" stroke-width="0.375108" stroke-linecap="round"/>
<path d="M16.5517 18.2962L15.9751 17.7874" stroke="#FC909F" stroke-width="0.375108" stroke-linecap="round"/>
<path d="M25.6373 16.5799L26.2139 16.071" stroke="#FC909F" stroke-width="0.375108" stroke-linecap="round"/>
<path d="M17.1563 17.767L16.7769 17.0981" stroke="#FC909F" stroke-width="0.375108" stroke-linecap="round"/>
<path d="M24.9389 16.2382L25.3184 15.5693" stroke="#FC909F" stroke-width="0.375108" stroke-linecap="round"/>
<path d="M17.9139 17.4281L17.7075 16.6873" stroke="#FC909F" stroke-width="0.375108" stroke-linecap="round"/>
<path d="M24.0875 16.1808L24.2939 15.4399" stroke="#FC909F" stroke-width="0.375108" stroke-linecap="round"/>
<path d="M20.0882 19.1617C20.2624 19.7583 19.6158 19.3002 19.0192 19.4744C18.4226 19.6487 18.102 20.3892 17.9278 19.7926C17.7535 19.196 18.0959 18.5712 18.6925 18.3969C19.2891 18.2227 19.9139 18.5651 20.0882 19.1617Z" fill="#6BD9E9"/>
<path d="M26.0705 18.2996C26.2238 18.9019 25.6304 18.4421 25.0281 18.5954C24.4258 18.7487 24.0427 19.457 23.8894 18.8547C23.7361 18.2524 24.1001 17.6399 24.7024 17.4866C25.3047 17.3333 25.9172 17.6973 26.0705 18.2996Z" fill="#6BD9E9"/>
<path fill-rule="evenodd" clip-rule="evenodd" d="M18.1014 20.0726C18.1121 20.1488 18.209 20.1658 18.2628 20.1108C18.494 19.8749 18.8494 19.7016 19.262 19.6525C19.5053 19.6236 19.7394 19.6414 19.948 19.6968C20.0187 19.7156 20.0882 19.6559 20.0635 19.587C19.9073 19.1514 19.4666 18.8651 18.9874 18.922C18.4303 18.9882 18.0323 19.4935 18.0985 20.0507C18.0994 20.058 18.1003 20.0653 18.1014 20.0726Z" fill="black"/>
<path fill-rule="evenodd" clip-rule="evenodd" d="M24.1122 19.1348C24.1228 19.2111 24.2197 19.2281 24.2737 19.1732C24.5027 18.9401 24.8543 18.7689 25.2623 18.7204C25.5028 18.6918 25.7342 18.7093 25.9405 18.7638C26.0112 18.7826 26.0807 18.7228 26.0559 18.654C25.9007 18.2233 25.4644 17.9403 24.9903 17.9966C24.4384 18.0622 24.0441 18.5628 24.1097 19.1148C24.1105 19.1215 24.1113 19.1282 24.1122 19.1348Z" fill="black"/>
<path d="M22.4664 20.3751C22.4855 20.7355 22.6256 21.5081 23.0336 21.7159C23.5436 21.9757 23.1438 22.8368 22.1891 22.7816" stroke="black" stroke-width="0.375108"/>
<path d="M7.08788 36.3254C7.07354 36.2887 7.05384 36.2372 7.02993 36.1718C6.97676 36.0263 6.90277 35.8121 6.82041 35.5397C6.65564 34.9947 6.45769 34.2176 6.32573 33.2912C6.06154 31.4366 6.06348 28.9957 7.11312 26.622C7.28278 26.2383 7.4948 25.8441 7.72459 25.4169C8.61246 23.7662 9.76562 21.6223 9.76562 17.685C9.76562 14.8163 11.158 12.4004 13.2079 10.6973C15.2597 8.9926 17.9622 8.00977 20.5577 8.00977C21.9766 8.00977 23.1174 8.17233 24.0343 8.72624C24.9456 9.27672 25.6631 10.2311 26.196 11.8754C26.2502 12.0427 26.4294 12.145 26.6046 12.0882C27.6657 11.7439 29.2746 12.0914 30.6327 12.978C31.9848 13.8607 33.0349 15.2432 33.0349 16.9095C33.0349 18.3561 32.7871 19.3336 32.5456 20.2855L32.5456 20.2856C32.2531 21.438 31.9707 22.5512 32.1699 24.3647C32.2364 24.9695 32.3716 25.3984 32.5605 25.754C32.7465 26.1038 32.9808 26.3747 33.2277 26.6602L33.2334 26.6667C33.8216 27.3468 34.0894 27.9063 34.1758 28.3984C34.2621 28.8894 34.1718 29.3346 34.0039 29.7966C33.9196 30.0287 33.817 30.2617 33.7083 30.5073L33.6989 30.5285C33.5937 30.766 33.4836 31.0147 33.3847 31.2763C33.18 31.8175 33.0202 32.4211 33.0361 33.1364C33.0496 33.7436 33.1573 34.1598 33.3183 34.4747C33.4775 34.786 33.6829 34.9851 33.8622 35.1588L33.867 35.1634C34.0304 35.3218 34.1664 35.4552 34.267 35.6421C34.3569 35.8091 34.4236 36.0295 34.4348 36.3605C32.1833 37.6996 29.9549 38.253 28.2815 38.4707C27.4342 38.581 26.73 38.605 26.2388 38.6015C25.9932 38.5998 25.8009 38.5912 25.6707 38.5831C25.6249 38.5803 25.5867 38.5775 25.5567 38.5751C24.9799 37.6946 24.4543 36.2421 24.0471 34.7501C23.6512 33.2994 23.3733 31.8345 23.2688 30.8668C26.7454 29.8617 28.9245 26.2735 28.4006 22.5714C28.4 22.5645 28.3992 22.5599 28.3992 22.5597L28.3963 22.5411C28.3941 22.5277 28.391 22.5097 28.387 22.4879C28.379 22.444 28.3673 22.3822 28.3521 22.3047C28.3216 22.1497 28.2769 21.9307 28.2197 21.6657C28.1053 21.1357 27.9407 20.4201 27.7399 19.661C27.5392 18.9024 27.3016 18.0977 27.041 17.3906C26.7822 16.6887 26.4941 16.0643 26.1868 15.6802L26.159 15.6455L26.1182 15.6278C25.937 15.5492 25.7488 15.4616 25.5525 15.3702C24.6211 14.9365 23.5043 14.4165 22.058 14.3593C20.2973 14.2897 18.0676 14.901 15.0536 17.0869L14.8639 17.2245L15.0464 17.3715C16.5399 18.575 16.8628 20.1714 16.7938 21.5266C16.7411 22.5608 16.4609 23.4406 16.3028 23.8804C16.1939 23.7213 16.1245 23.5213 16.0724 23.2864C16.0363 23.124 16.01 22.9529 15.9825 22.7737L15.9781 22.7453C15.9494 22.5583 15.9187 22.3632 15.874 22.1748C15.7848 21.7987 15.6339 21.4227 15.299 21.1565C14.9633 20.8897 14.4741 20.7575 13.7617 20.7973L13.5528 20.8089L13.5964 21.0135L14.6616 26.0131L14.6634 26.0215L14.6659 26.0297C15.0465 27.2358 15.699 28.2813 16.5333 29.1067C16.5404 29.1186 16.5508 29.136 16.564 29.1586C16.5911 29.205 16.6302 29.273 16.6775 29.3583C16.7722 29.5291 16.8996 29.7689 17.0302 30.045C17.2941 30.6029 17.561 31.2878 17.6124 31.847C17.6646 32.4146 17.5219 33.1468 17.3585 33.7517C17.2777 34.0511 17.1933 34.3137 17.1292 34.5014C17.1159 34.5405 17.1034 34.5763 17.0921 34.6085C16.6201 34.383 16.1986 34.3998 15.8374 34.61C15.447 34.8373 15.161 35.2721 14.9481 35.7556C14.5591 36.6391 14.372 37.7849 14.2857 38.4959C11.9534 37.9609 10.1525 37.4179 8.92724 37.0053C8.29765 36.7932 7.82003 36.6157 7.50037 36.4914C7.34054 36.4292 7.2202 36.3804 7.1401 36.3472C7.12021 36.3389 7.1028 36.3317 7.08788 36.3254Z" fill="#FC909F" stroke="black" stroke-width="0.358401"/>
<path d="M14.528 20.9894C14.3095 20.9174 14.0737 20.8792 13.8322 20.8792C12.8482 20.8792 12.0505 21.4887 12.1442 22.614C12.2419 23.7862 12.9419 24.2082 13.926 24.2082C14.0355 24.2082 14.1427 24.1986 14.2467 24.1802C14.3602 24.1601 14.47 24.1296 14.5749 24.0896" stroke="black" stroke-width="0.750217"/>
<path d="M14.6218 24.071C14.408 24.1593 14.1729 24.2082 13.926 24.2082C12.9419 24.2082 12.2419 23.7862 12.1442 22.614C12.0505 21.4887 12.8482 20.8792 13.8322 20.8792C14.1264 20.8792 14.4124 20.936 14.6687 21.0413L14.6218 24.071Z" fill="#77311D"/>
<path d="M14.247 21.6761C13.8719 21.5042 13.0467 21.4135 12.7466 22.4263" stroke="black" stroke-width="0.375108"/>
<path d="M13.2622 21.7231C13.4654 21.8951 13.853 22.4265 13.778 23.1767" stroke="black" stroke-width="0.375108"/>
<path d="M14.1999 23.6924C15.4429 23.6924 16.4505 24.7 16.4505 25.943C16.4505 27.186 15.4429 28.1937 14.1999 28.1937C12.9569 28.1937 11.9492 27.186 11.9492 25.943C11.9492 25.3437 12.2774 24.8646 12.5655 24.3957L12.6525 24.255" stroke="#F4D150" stroke-width="0.375108"/>
<path d="M33.1768 39.9966H7.58419C7.58742 39.99 7.59068 39.9834 7.59396 39.9767C8.02015 39.1087 8.80644 37.5074 9.8298 36.0747C10.4106 35.2615 11.0609 34.5129 11.7559 33.9863C12.451 33.4597 13.1738 33.1675 13.9081 33.2318C15.3198 33.3553 16.5773 34.1282 17.8397 34.9042C17.9593 34.9778 18.079 35.0513 18.1988 35.1244C19.5571 35.9522 20.952 36.7208 22.4861 36.3844C23.0052 36.2706 23.3549 36.0271 23.5751 35.7125C23.7921 35.4024 23.8701 35.042 23.8836 34.7126C23.8971 34.3827 23.8465 34.0709 23.794 33.8442C23.7694 33.7382 23.7441 33.6493 23.7239 33.5842C24.0639 33.242 24.4238 33.0427 24.7954 32.953C25.1981 32.8558 25.6287 32.8839 26.0818 33.0179C26.9942 33.2878 27.9705 33.9793 28.9232 34.8685C30.6688 36.4976 32.2705 38.7269 33.1768 39.9966Z" fill="white" stroke="black" stroke-width="0.400832"/>
</g>
<defs>
<clipPath id="clip0_796_3575">
<rect width="40" height="40" rx="4" fill="white"/>
</clipPath>
<clipPath id="clip1_796_3575">
<rect width="18.7554" height="30.0087" fill="white" transform="translate(11.293 8.12524)"/>
</clipPath>
</defs>
</svg>
