<svg width="24" height="24" viewBox="0 0 24 24" fill="none" xmlns="http://www.w3.org/2000/svg">
<path fill-rule="evenodd" clip-rule="evenodd" d="M12.2154 3.31437C12.0492 3.54032 12.0187 3.83868 12.1358 4.09354C12.6493 5.21097 12.9022 6.31549 12.9022 7.54849C12.9022 11.4234 9.63724 14.7358 5.44505 14.7358C4.99513 14.7358 4.528 14.6268 3.95275 14.4877C3.66956 14.4192 3.37196 14.5161 3.18339 14.7382C2.99482 14.9603 2.94746 15.2697 3.06095 15.538C4.44561 18.8117 7.80801 21 11.7211 21C16.8729 21 21 16.8935 21 12C21 7.4123 17.486 3.5932 12.9355 3.00635C12.6573 2.97047 12.3816 3.08842 12.2154 3.31437ZM14.0568 4.82295C17.2042 5.79639 19.4571 8.67288 19.4571 12C19.4571 16.0095 16.053 19.4571 11.7211 19.4571C8.97499 19.4571 6.61107 18.2002 5.2318 16.2734C5.30261 16.2768 5.37373 16.2787 5.44505 16.2787C10.4577 16.2787 14.445 12.3068 14.445 7.54849C14.445 6.59161 14.3149 5.69502 14.0568 4.82295Z" fill="black"/>
</svg>
