<svg width="16" height="16" viewBox="0 0 16 16" fill="none" xmlns="http://www.w3.org/2000/svg">
<path d="M6 10C6 10.3682 5.70152 10.6667 5.33333 10.6667C4.96514 10.6667 4.66667 10.3682 4.66667 10C4.66667 9.63181 4.96514 9.33333 5.33333 9.33333C5.70152 9.33333 6 9.63181 6 10Z" fill="#9E9E9E"/>
<path d="M6 7.33333C6 7.70152 5.70152 8 5.33333 8C4.96514 8 4.66667 7.70152 4.66667 7.33333C4.66667 6.96514 4.96514 6.66667 5.33333 6.66667C5.70152 6.66667 6 6.96514 6 7.33333Z" fill="#9E9E9E"/>
<path d="M8.66667 10C8.66667 10.3682 8.36819 10.6667 8 10.6667C7.63181 10.6667 7.33333 10.3682 7.33333 10C7.33333 9.63181 7.63181 9.33333 8 9.33333C8.36819 9.33333 8.66667 9.63181 8.66667 10Z" fill="#9E9E9E"/>
<path d="M8.66667 7.33333C8.66667 7.70152 8.36819 8 8 8C7.63181 8 7.33333 7.70152 7.33333 7.33333C7.33333 6.96514 7.63181 6.66667 8 6.66667C8.36819 6.66667 8.66667 6.96514 8.66667 7.33333Z" fill="#9E9E9E"/>
<path d="M11.3333 7.33333C11.3333 7.70152 11.0349 8 10.6667 8C10.2985 8 10 7.70152 10 7.33333C10 6.96514 10.2985 6.66667 10.6667 6.66667C11.0349 6.66667 11.3333 6.96514 11.3333 7.33333Z" fill="#9E9E9E"/>
<path fill-rule="evenodd" clip-rule="evenodd" d="M8 3.16667C6.58888 3.16667 4.66096 3.28894 3.45767 3.37699C3.06166 3.40596 2.74963 3.71541 2.71747 4.11041C2.62466 5.2505 2.5 7.02782 2.5 8.33333C2.5 9.63885 2.62466 11.4162 2.71747 12.5563C2.74963 12.9513 3.06166 13.2607 3.45767 13.2897C4.66096 13.3777 6.58888 13.5 8 13.5C9.41112 13.5 11.339 13.3777 12.5423 13.2897C12.9383 13.2607 13.2504 12.9513 13.2825 12.5563C13.3753 11.4162 13.5 9.63885 13.5 8.33333C13.5 7.02782 13.3753 5.2505 13.2825 4.11041C13.2504 3.71541 12.9383 3.40596 12.5423 3.37699C11.339 3.28894 9.41112 3.16667 8 3.16667ZM3.38469 2.37965C4.58853 2.29157 6.54877 2.16667 8 2.16667C9.45123 2.16667 11.4115 2.29157 12.6153 2.37965C13.5022 2.44454 14.207 3.14218 14.2792 4.02927C14.3721 5.17026 14.5 6.98332 14.5 8.33333C14.5 9.68334 14.3721 11.4964 14.2792 12.6374C14.207 13.5245 13.5022 14.2221 12.6153 14.287C11.4115 14.3751 9.45124 14.5 8 14.5C6.54877 14.5 4.58853 14.3751 3.38469 14.287C2.4978 14.2221 1.79299 13.5245 1.72077 12.6374C1.62789 11.4964 1.5 9.68334 1.5 8.33333C1.5 6.98332 1.62789 5.17026 1.72077 4.02927C1.79299 3.14219 2.4978 2.44455 3.38469 2.37965Z" fill="#9E9E9E"/>
<path fill-rule="evenodd" clip-rule="evenodd" d="M6 1.5C6.27614 1.5 6.5 1.72386 6.5 2V3.66667C6.5 3.94281 6.27614 4.16667 6 4.16667C5.72386 4.16667 5.5 3.94281 5.5 3.66667V2C5.5 1.72386 5.72386 1.5 6 1.5Z" fill="#9E9E9E"/>
<path fill-rule="evenodd" clip-rule="evenodd" d="M10 1.5C10.2761 1.5 10.5 1.72386 10.5 2L10.5 3.66667C10.5 3.94281 10.2761 4.16667 10 4.16667C9.72386 4.16667 9.5 3.94281 9.5 3.66667L9.5 2C9.5 1.72386 9.72386 1.5 10 1.5Z" fill="#9E9E9E"/>
</svg>
