<svg width="80" height="80" viewBox="0 0 80 80" fill="none" xmlns="http://www.w3.org/2000/svg">
<g clip-path="url(#clip0_796_3510)">
<rect width="80" height="80" fill="#FF5271"/>
<path d="M52.2292 77.5384C49.0414 73.1109 46.5473 62.3374 46.2521 58.0575L31.088 51.5269L24.7788 77.5384H52.2292Z" fill="#FC909F" stroke="black" stroke-width="0.885497"/>
<mask id="mask0_796_3510" style="mask-type:alpha" maskUnits="userSpaceOnUse" x="24" y="51" width="29" height="27">
<path d="M52.2292 77.5384C49.0414 73.1109 46.5473 62.3374 46.2521 58.0575L31.088 51.5269L24.7788 77.5384H52.2292Z" fill="#FFEDEF"/>
</mask>
<g mask="url(#mask0_796_3510)">
<ellipse cx="45.313" cy="51.1451" rx="13.0611" ry="11.9542" fill="black"/>
</g>
<g clip-path="url(#clip1_796_3510)">
<path d="M51.9543 75.386C48.7665 70.9585 46.2724 62.3987 45.9772 58.1188L30.8131 51.5881L24.5039 75.386H51.9543Z" fill="#F9C9B6" stroke="black" stroke-width="0.885497"/>
<mask id="mask1_796_3510" style="mask-type:alpha" maskUnits="userSpaceOnUse" x="24" y="51" width="28" height="27">
<path d="M51.9543 77.5997C48.7665 73.1722 46.2724 62.3987 45.9772 58.1188L30.8131 51.5881L24.5039 77.5997H51.9543Z" fill="#F9C9B6"/>
</mask>
<g mask="url(#mask1_796_3510)">
<g style="mix-blend-mode:multiply">
<ellipse cx="45.313" cy="51.1454" rx="13.0611" ry="11.9542" fill="black"/>
</g>
</g>
<mask id="path-8-inside-1_796_3510" fill="white">
<path fill-rule="evenodd" clip-rule="evenodd" d="M58.5709 38.0665C58.5649 38.0407 58.5588 38.0149 58.5526 37.9891C58.5464 37.9633 58.5402 37.9376 58.5339 37.9118L54.9043 22.7629C54.9007 22.7476 54.8971 22.7324 54.8934 22.7171C54.8898 22.7019 54.8861 22.6866 54.8824 22.6714L54.8665 22.6049L54.8662 22.605C52.6041 13.4302 43.3559 7.78877 34.1524 9.99384C24.9489 12.1989 19.2613 21.4188 21.4026 30.6225L21.4022 30.6226L25.1636 46.322L25.1667 46.3213C27.5139 55.3765 36.6937 60.919 45.8293 58.7301C54.9649 56.5413 60.6364 47.4407 58.6252 38.305L58.6279 38.3043L58.5709 38.0665Z"/>
</mask>
<path fill-rule="evenodd" clip-rule="evenodd" d="M58.5709 38.0665C58.5649 38.0407 58.5588 38.0149 58.5526 37.9891C58.5464 37.9633 58.5402 37.9376 58.5339 37.9118L54.9043 22.7629C54.9007 22.7476 54.8971 22.7324 54.8934 22.7171C54.8898 22.7019 54.8861 22.6866 54.8824 22.6714L54.8665 22.6049L54.8662 22.605C52.6041 13.4302 43.3559 7.78877 34.1524 9.99384C24.9489 12.1989 19.2613 21.4188 21.4026 30.6225L21.4022 30.6226L25.1636 46.322L25.1667 46.3213C27.5139 55.3765 36.6937 60.919 45.8293 58.7301C54.9649 56.5413 60.6364 47.4407 58.6252 38.305L58.6279 38.3043L58.5709 38.0665Z" fill="#F9C9B6"/>
<path d="M58.5709 38.0665L57.7089 38.2689L57.7098 38.2728L58.5709 38.0665ZM58.5526 37.9891L57.6915 38.1954L57.6915 38.1954L58.5526 37.9891ZM58.5339 37.9118L57.6727 38.1181L57.6737 38.122L58.5339 37.9118ZM54.9043 22.7629L54.0426 22.9669L54.0432 22.9692L54.9043 22.7629ZM54.8934 22.7171L55.7546 22.5108L55.7545 22.5108L54.8934 22.7171ZM54.8824 22.6714L54.0213 22.8777L54.0218 22.88L54.8824 22.6714ZM54.8665 22.6049L55.7276 22.3986L55.5217 21.539L54.6617 21.7434L54.8665 22.6049ZM54.8662 22.605L54.0064 22.8169L54.2166 23.6695L55.0709 23.4665L54.8662 22.605ZM34.1524 9.99384L33.9461 9.13271L34.1524 9.99384ZM21.4026 30.6225L21.6094 31.4836L22.4643 31.2783L22.2651 30.4219L21.4026 30.6225ZM21.4022 30.6226L21.1954 29.7616L20.3349 29.9683L20.5411 30.829L21.4022 30.6226ZM25.1636 46.322L24.3025 46.5284L24.5089 47.3899L25.3704 47.1831L25.1636 46.322ZM25.1667 46.3213L26.0239 46.0991L25.8057 45.2572L24.96 45.4603L25.1667 46.3213ZM45.8293 58.7301L46.0356 59.5913L46.0356 59.5913L45.8293 58.7301ZM58.6252 38.305L58.4192 37.4437L57.5734 37.646L57.7604 38.4953L58.6252 38.305ZM58.6279 38.3043L58.8339 39.1655L59.6954 38.9594L59.489 38.098L58.6279 38.3043ZM59.433 37.8641C59.4266 37.837 59.4202 37.8099 59.4137 37.7828L57.6915 38.1954C57.6973 38.2199 57.7031 38.2444 57.7089 38.2689L59.433 37.8641ZM59.4137 37.7828C59.4072 37.7557 59.4007 37.7286 59.3941 37.7016L57.6737 38.122C57.6797 38.1465 57.6856 38.171 57.6915 38.1954L59.4137 37.7828ZM54.0432 22.9692L57.6727 38.1181L59.395 37.7055L55.7654 22.5566L54.0432 22.9692ZM55.766 22.5588C55.7622 22.5428 55.7584 22.5267 55.7546 22.5108L54.0323 22.9234C54.0358 22.938 54.0392 22.9525 54.0427 22.9669L55.766 22.5588ZM55.7545 22.5108C55.7507 22.4948 55.7468 22.4788 55.743 22.4628L54.0218 22.88C54.0253 22.8945 54.0288 22.9089 54.0323 22.9234L55.7545 22.5108ZM54.0053 22.8112L54.0213 22.8777L55.7435 22.4651L55.7276 22.3986L54.0053 22.8112ZM55.0709 23.4665L55.0712 23.4664L54.6617 21.7434L54.6614 21.7435L55.0709 23.4665ZM55.7259 22.393C53.3474 12.7459 43.6233 6.81415 33.9461 9.13271L34.3587 10.855C43.0885 8.76339 51.8608 14.1145 54.0064 22.8169L55.7259 22.393ZM33.9461 9.13271C24.2689 11.4513 18.2886 21.1457 20.5402 30.8232L22.2651 30.4219C20.234 21.692 25.6289 12.9465 34.3587 10.855L33.9461 9.13271ZM21.6089 31.4837L21.6094 31.4836L21.1959 29.7615L21.1954 29.7616L21.6089 31.4837ZM26.0248 46.1157L22.2633 30.4163L20.5411 30.829L24.3025 46.5284L26.0248 46.1157ZM24.96 45.4603L24.9569 45.461L25.3704 47.1831L25.3734 47.1823L24.96 45.4603ZM24.3095 46.5435C26.7776 56.0651 36.4297 61.8927 46.0356 59.5913L45.623 57.869C36.9576 59.9452 28.2502 54.688 26.0239 46.0991L24.3095 46.5435ZM46.0356 59.5913C55.6415 57.2898 61.6047 47.7208 59.49 38.1146L57.7604 38.4953C59.668 47.1606 54.2884 55.7929 45.623 57.869L46.0356 59.5913ZM58.4219 37.4431L58.4192 37.4437L58.8312 39.1662L58.8339 39.1655L58.4219 37.4431ZM57.7098 38.2728L57.7668 38.5106L59.489 38.098L59.4321 37.8602L57.7098 38.2728Z" fill="black" mask="url(#path-8-inside-1_796_3510)"/>
</g>
<path d="M37.6753 43.9504C38.2287 47.7138 44.5379 49.4848 50.2936 45.168" stroke="black" stroke-width="0.885497"/>
<path d="M46.4199 24.4062C47.6744 23.8159 50.626 23.2772 52.397 25.8451" stroke="black" stroke-width="0.885497" stroke-linecap="round"/>
<path d="M29.7236 30.0084C30.182 28.7 31.867 26.2174 34.9398 26.7545" stroke="black" stroke-width="0.885497" stroke-linecap="round"/>
<path d="M38.4035 5.87153L38.4204 5.87333L38.4374 5.87383C44.3413 6.04748 48.9308 8.39701 52.1787 11.2643C55.2903 14.0114 57.1484 17.2135 57.7544 19.396C56.8556 19.909 55.316 20.3504 53.3524 20.7124C51.2104 21.1073 48.6387 21.3957 46.0145 21.6013C40.7665 22.0124 35.3466 22.0895 32.815 22.0345L31.4706 22.0052L32.5347 22.8274C33.0876 23.2547 33.8235 23.552 34.602 23.7611C35.386 23.9718 36.2443 24.101 37.0662 24.1744C37.9127 24.25 38.7381 24.2678 39.4218 24.2504C37.0781 26.0572 34.0951 27.4465 31.1537 28.4763C27.7565 29.6657 24.4527 30.3625 22.3366 30.6726L21.8608 30.7424L21.9695 31.2108C22.7105 34.4049 24.0728 39.9886 24.9864 43.7335C25.3917 45.3949 25.7088 46.6944 25.8441 47.2629C26.0841 48.271 26.8399 49.708 27.7025 51.0325C28.4979 52.2538 29.4258 53.443 30.2089 54.175L28.4737 61.2176H21.9297C23.7755 58.4033 24.1651 55.1514 23.7887 51.7024C23.3813 47.9691 22.0705 43.9532 20.6888 39.9325C20.5528 39.5366 20.4161 39.1408 20.2794 38.745C19.0211 35.1014 17.7663 31.4679 17.0865 27.9854C16.3336 24.1282 16.3 20.5182 17.7137 17.3442C20.0024 12.2053 24.0597 9.22116 28.1181 7.57664C32.1859 5.92826 36.2247 5.63936 38.4035 5.87153Z" fill="white" stroke="black" stroke-width="0.885497"/>
<ellipse cx="35.5297" cy="31.9993" rx="1.99237" ry="2.21374" transform="rotate(-6.77646 35.5297 31.9993)" fill="black"/>
<ellipse cx="49.7044" cy="29.7847" rx="1.99237" ry="2.21374" transform="rotate(-6.27568 49.7044 29.7847)" fill="black"/>
<path d="M43.3009 32.0837C43.7322 35.1528 45.6057 37.3485 45.6057 37.3485C45.6057 37.3485 45.0233 38.7717 42.7694 38.6413" stroke="black" stroke-width="0.885497"/>
<path d="M26.939 35.483V35.2352L26.7278 35.1057C25.9012 34.5984 24.896 34.3209 23.8574 34.3209C22.6088 34.3209 21.4398 34.7078 20.6072 35.4931C19.7651 36.2873 19.3109 37.4484 19.4315 38.8959C19.549 40.3064 20.0225 41.3445 20.8079 42.0343C20.7434 42.2555 20.7244 42.494 20.7543 42.7449C20.8405 43.4685 21.2062 43.9898 21.7715 44.311C22.3103 44.6173 22.9999 44.7255 23.7344 44.7255C24.9473 44.7255 26.0109 44.0731 26.8207 43.2005L26.939 43.0731V42.8993V35.483Z" stroke="#292929" stroke-width="0.885497"/>
<path fill-rule="evenodd" clip-rule="evenodd" d="M28.2615 38.966C28.2773 38.8217 28.2854 38.6752 28.2854 38.5268C28.2854 36.265 26.1809 34.7634 23.8579 34.7634C21.5349 34.7634 19.6518 36.2024 19.8732 38.8589C19.9964 40.3371 20.5253 41.3099 21.3455 41.8955C21.2152 42.1221 21.1582 42.3884 21.1944 42.6923C21.3337 43.8616 22.3318 44.2825 23.7349 44.2825C26.1933 44.2825 28.1384 41.1729 28.2615 38.966Z" fill="#F9C9B6"/>
<path d="M24.8359 36.6454C23.9504 36.2396 22.0023 36.0256 21.2939 38.4164" stroke="black" stroke-width="0.885497"/>
<path d="M22.5112 36.7559C22.9909 37.1617 23.9059 38.4162 23.7288 40.1872" stroke="black" stroke-width="0.885497"/>
<path d="M69.5966 79.924H9.0908C12.6991 73.4284 17.8314 69.294 26.1521 67.3968C29.6971 66.5886 33.8268 66.1854 38.672 66.1854C40.7653 66.1854 42.3942 66.5047 43.9399 66.9261C44.5125 67.0822 45.0881 67.2571 45.6769 67.436C46.6515 67.7322 47.6623 68.0394 48.7562 68.2905L48.7872 68.2977L48.8189 68.3003C59.0298 69.1424 65.1528 73.6779 69.5966 79.924Z" fill="#77311D" stroke="black" stroke-width="0.885497"/>
<path d="M23.6028 67.877L25.6291 63.5388C25.6775 63.4352 25.7978 63.3858 25.9056 63.424C34.3015 66.396 41.9395 66.1867 49.0179 64.2163C49.1069 64.1915 49.2021 64.2243 49.2567 64.299L52.341 68.5167C52.4257 68.6326 52.3825 68.7961 52.2489 68.8486C44.8091 71.77 30.849 71.2734 23.7101 68.1699C23.5969 68.1207 23.5506 67.9889 23.6028 67.877Z" fill="white" stroke="black" stroke-width="0.885497"/>
</g>
<defs>
<clipPath id="clip0_796_3510">
<rect width="80" height="80" fill="white"/>
</clipPath>
<clipPath id="clip1_796_3510">
<rect width="44.2749" height="70.8398" fill="white" transform="translate(17.8628 4.65674)"/>
</clipPath>
</defs>
</svg>
